<svg xmlns="http://www.w3.org/2000/svg" width="38" height="38" viewBox="0 0 38 38">
    <g fill="none" fill-rule="evenodd">
        <circle cx="19" cy="19" r="19" fill="#E9F4F5"/>
        <path fill="#FFF" stroke="#02647A" stroke-linecap="round" stroke-width=".9" d="M5.429 33.759L3.8 25.073 1.086 19.102 19 14.759 36.914 19.102 34.2 25.073 32.571 33.759"/>
        <path fill="#E9F4F5" d="M6.514 17.473L6.514 8.245 13.029 8.245 13.571 4.445 24.971 4.445 24.971 8.245 31.486 8.245 31.486 17.473 19 14.759z"/>
        <g>
            <path fill="#A3C8D0" fill-rule="nonzero" d="M37.457 31.927c-.3 0-.543.266-.543.594 0 .327.243.593.543.593.3 0 .543-.266.543-.593 0-.328-.243-.594-.543-.594zm-36.914 0c-.3 0-.543.266-.543.594 0 .327.243.593.543.593.3 0 .543-.266.543-.593 0-.328-.243-.594-.543-.594z" transform="translate(0 1.188)"/>
            <path stroke="#02647A" stroke-linecap="round" stroke-width=".9" d="M2.714 32.47c1.086 0 2.172-1.086 3.257-1.086 1.086 0 2.172 1.086 3.258 1.086 1.085 0 2.171-1.086 3.257-1.086 1.085 0 2.171 1.086 3.257 1.086 1.086 0 2.171-1.086 3.257-1.086 1.086 0 2.171 1.086 3.257 1.086 1.086 0 2.172-1.086 3.257-1.086 1.086 0 2.172 1.086 3.257 1.086 1.086 0 2.172-1.086 3.258-1.086 1.085 0 2.171 1.086 3.257 1.086m-3.8-16.184V7.057H24.97v-3.8H13.03v3.8H6.514v9.229" transform="translate(0 1.188)"/>
            <path fill="#EF4050" fill-rule="nonzero" d="M20.086 6.514c-.3 0-.543.243-.543.543 0 .3.243.543.543.543.3 0 .543-.243.543-.543 0-.3-.243-.543-.543-.543zm2.171 0c-.3 0-.543.243-.543.543 0 .3.243.543.543.543.3 0 .543-.243.543-.543 0-.3-.243-.543-.543-.543zm2.172 0c-.3 0-.543.243-.543.543 0 .3.243.543.543.543.3 0 .542-.243.542-.543 0-.3-.243-.543-.542-.543zm-6.515 0c-.3 0-.543.243-.543.543 0 .3.243.543.543.543.3 0 .543-.243.543-.543 0-.3-.243-.543-.543-.543zm-2.171 0c-.3 0-.543.243-.543.543 0 .3.243.543.543.543.3 0 .543-.243.543-.543 0-.3-.243-.543-.543-.543zm-2.172 0c-.3 0-.542.243-.542.543 0 .3.243.543.542.543.3 0 .543-.243.543-.543 0-.3-.243-.543-.543-.543zm4.343 3.8c-.3 0-.543.243-.543.543 0 .3.243.543.543.543.3 0 .543-.243.543-.543 0-.3-.243-.543-.543-.543zm2.172 0c-.3 0-.543.243-.543.543 0 .3.243.543.543.543.3 0 .543-.243.543-.543 0-.3-.243-.543-.543-.543zm2.171 0c-.3 0-.543.243-.543.543 0 .3.243.543.543.543.3 0 .543-.243.543-.543 0-.3-.243-.543-.543-.543zm2.172 0c-.3 0-.543.243-.543.543 0 .3.243.543.543.543.3 0 .542-.243.542-.543 0-.3-.243-.543-.542-.543zm-8.686 0c-.3 0-.543.243-.543.543 0 .3.243.543.543.543.3 0 .543-.243.543-.543 0-.3-.243-.543-.543-.543zm10.857 0c-.3 0-.543.243-.543.543 0 .3.243.543.543.543.3 0 .543-.243.543-.543 0-.3-.243-.543-.543-.543zm2.171 0c-.3 0-.542.243-.542.543 0 .3.243.543.542.543.3 0 .543-.243.543-.543 0-.3-.243-.543-.543-.543zm-15.2 0c-.3 0-.542.243-.542.543 0 .3.243.543.542.543.3 0 .543-.243.543-.543 0-.3-.243-.543-.543-.543zm-2.171 0c-.3 0-.543.243-.543.543 0 .3.243.543.543.543.3 0 .543-.243.543-.543 0-.3-.243-.543-.543-.543zm-2.171 0c-.3 0-.543.243-.543.543 0 .3.243.543.543.543.3 0 .542-.243.542-.543 0-.3-.243-.543-.542-.543zM19 30.4c-.3 0-.543.243-.543.543 0 .3.243.543.543.543.3 0 .543-.243.543-.543 0-.3-.243-.543-.543-.543zm0-2.171c-.3 0-.543.243-.543.542 0 .3.243.543.543.543.3 0 .543-.243.543-.543 0-.3-.243-.542-.543-.542zm0-2.172c-.3 0-.543.243-.543.543 0 .3.243.543.543.543.3 0 .543-.243.543-.543 0-.3-.243-.543-.543-.543zm0-2.171c-.3 0-.543.243-.543.543 0 .3.243.542.543.542.3 0 .543-.243.543-.542 0-.3-.243-.543-.543-.543zm0-2.172c-.3 0-.543.243-.543.543 0 .3.243.543.543.543.3 0 .543-.243.543-.543 0-.3-.243-.543-.543-.543zm0-2.171c-.3 0-.543.243-.543.543 0 .3.243.543.543.543.3 0 .543-.243.543-.543 0-.3-.243-.543-.543-.543zm0-2.172c-.3 0-.543.243-.543.543 0 .3.243.543.543.543.3 0 .543-.243.543-.543 0-.3-.243-.543-.543-.543zm0-2.171c-.3 0-.543.243-.543.543 0 .3.243.543.543.543.3 0 .543-.243.543-.543 0-.3-.243-.543-.543-.543z" transform="translate(0 1.188)"/>
            <path stroke="#02647A" stroke-linecap="round" stroke-width=".9" d="M27.143 21.171v-.933c0-.353.332-.612.675-.526l1.085.271c.242.06.411.278.411.527v1.204m-18.457-.543v-.933c0-.353-.332-.612-.675-.526l-1.085.271c-.242.06-.411.278-.411.527v1.204M19 3.257V0" transform="translate(0 1.188)"/>
        </g>
    </g>
</svg>
