<svg xmlns="http://www.w3.org/2000/svg" width="38" height="38" viewBox="0 0 38 38">
    <g fill="none" fill-rule="evenodd">
        <path d="M0 0H38V38H0z"/>
        <circle cx="19" cy="19.018" r="18.406" fill="#E9F4F5"/>
        <path fill="#FFF" d="M3.563 16.436L3.563 8.781 4.698 7.486 6.017 7.125 33.095 7.125 34.791 7.727 35.625 9.192 35.398 16.868 34.288 18.211 32.448 19 29.86 19 7.428 19 5.434 18.574 3.978 17.721z"/>
        <path fill="#E9F4F5" d="M7.224 32.063L5.364 32.063 3.978 31.102 3.563 29.921 3.563 16.843 6.258 19.02 13.299 19.02 25.823 18.953 31.582 18.95 34.135 18.531 35.625 16.625 35.625 29.921 35.036 31.102 33.314 32.063z"/>
        <path fill="#02647A" fill-rule="nonzero" d="M16.813 2.375c-1.687 0-3.063 1.387-3.063 3.088v.882H5c-1.444 0-2.625 1.19-2.625 2.646v21.613c0 1.456 1.18 2.646 2.625 2.646h28c1.444 0 2.625-1.19 2.625-2.646V8.99c0-1.456-1.18-2.646-2.625-2.646h-8.75v-.882c0-1.7-1.376-3.088-3.063-3.088h-4.375zm0 .882h4.375c1.213 0 2.187.982 2.187 2.206v.882h-8.75v-.882c0-1.224.974-2.206 2.188-2.206zM5 7.227h9.114c.047.008.095.008.143 0h9.482c.047.008.095.008.143 0H33c.971 0 1.75.785 1.75 1.764v6.616c0 1.71-1.366 3.088-3.063 3.088H29.5V17.15c0-.363-.296-.662-.656-.662h-2.188c-.36 0-.656.3-.656.662v1.544H12V17.15c0-.363-.296-.662-.656-.662H9.156c-.36 0-.656.3-.656.662v1.544H6.312c-1.696 0-3.062-1.378-3.062-3.088V8.991c0-.98.779-1.764 1.75-1.764zm.219 1.764c-.08-.001-.153.04-.192.11-.04.068-.04.153 0 .222.04.068.113.11.192.11h21.437c.08 0 .153-.042.192-.11.04-.069.04-.154 0-.223-.04-.068-.113-.11-.192-.109H5.22zm23.187 0c-.079-.001-.152.04-.192.11-.04.068-.04.153 0 .222.04.068.113.11.192.11h2.188c.079 0 .152-.042.192-.11.04-.069.04-.154 0-.223-.04-.068-.113-.11-.192-.109h-2.188zm3.063 0c-.08-.001-.153.04-.192.11-.04.068-.04.153 0 .222.04.068.113.11.192.11h1.312c.08 0 .153-.042.192-.11.04-.069.04-.154 0-.223-.04-.068-.113-.11-.192-.109H31.47zM3.25 18.096c.723.902 1.827 1.48 3.063 1.48H8.5v1.545c0 .362.296.661.656.661h2.188c.36 0 .656-.299.656-.661v-1.544h14v1.544c0 .362.296.661.656.661h2.188c.36 0 .656-.299.656-.661v-1.544h2.188c1.235 0 2.34-.58 3.062-1.481v12.508c0 .979-.779 1.764-1.75 1.764H5c-.971 0-1.75-.785-1.75-1.764V18.096zm29.528 2.8c-.058.001-.113.026-.154.068-.04.042-.062.098-.062.157v1.764c0 .08.04.153.109.193.068.04.152.04.22 0 .069-.04.11-.114.109-.193V21.12c0-.06-.022-.118-.064-.16-.042-.042-.099-.065-.158-.064zm-27.563.442c-.058 0-.113.025-.153.067-.04.042-.063.098-.062.157v7.057c0 1.093.884 1.985 1.969 1.985H31.03c1.085 0 1.969-.892 1.969-1.985V25.09c.001-.08-.04-.153-.108-.193-.069-.04-.153-.04-.221 0s-.11.114-.108.193v3.529c0 .855-.684 1.544-1.532 1.544H6.97c-.848 0-1.532-.69-1.532-1.544v-7.057c.001-.06-.022-.118-.064-.16-.041-.042-.098-.065-.158-.064z"/>
        <path fill="#EF4050" d="M9.156 16.93h2.188c.123 0 .219.097.219.22v3.97c0 .125-.096.221-.22.221H9.157c-.123 0-.219-.096-.219-.22v-3.97c0-.124.096-.22.22-.22zM26.656 16.93h2.188c.123 0 .218.097.218.22v3.97c0 .125-.095.221-.218.221h-2.188c-.123 0-.218-.096-.218-.22v-3.97c0-.124.095-.22.218-.22z"/>
    </g>
</svg>
