<svg xmlns="http://www.w3.org/2000/svg" width="38" height="38" viewBox="0 0 38 38">
    <g fill="none" fill-rule="evenodd">
        <path d="M0 0H38V38H0z"/>
        <circle cx="19" cy="19.018" r="18.406" fill="#E9F4F5"/>
        <rect width="27.313" height="17.813" x="1.188" y="11.875" fill="#FFF" stroke="#FFF" rx="2"/>
        <g fill="#EF4050" stroke="#FF2449" stroke-width=".2">
            <path d="M1.089.528c-.32 0-.578.258-.578.577 0 .319.259.577.578.577.318 0 .577-.258.577-.577 0-.319-.259-.577-.577-.577zM3.398.528c-.32 0-.578.258-.578.577 0 .319.259.577.578.577.318 0 .577-.258.577-.577 0-.319-.259-.577-.577-.577zM5.707.528c-.32 0-.578.258-.578.577 0 .319.259.577.578.577.318 0 .577-.258.577-.577 0-.319-.259-.577-.577-.577zM8.016.528c-.32 0-.578.258-.578.577 0 .319.259.577.578.577.318 0 .577-.258.577-.577 0-.319-.259-.577-.577-.577zM10.325.528c-.32 0-.578.258-.578.577 0 .319.259.577.578.577.318 0 .577-.258.577-.577 0-.319-.259-.577-.577-.577zM12.634.528c-.32 0-.578.258-.578.577 0 .319.259.577.578.577.318 0 .577-.258.577-.577 0-.319-.259-.577-.577-.577zM14.943.528c-.32 0-.578.258-.578.577 0 .319.259.577.578.577.319 0 .577-.258.577-.577 0-.319-.258-.577-.577-.577zM17.252.528c-.32 0-.578.258-.578.577 0 .319.259.577.578.577.319 0 .577-.258.577-.577 0-.319-.258-.577-.577-.577zM19.56.528c-.318 0-.576.258-.576.577 0 .319.258.577.577.577.319 0 .577-.258.577-.577 0-.319-.258-.577-.577-.577z" transform="translate(2.375 26.125)"/>
        </g>
        <path fill="#EF4050" stroke="#FF2449" stroke-width=".2" d="M20.204 16.84c-.319 0-.577.258-.577.577 0 .318.258.577.577.577.319 0 .577-.259.577-.577 0-.32-.258-.578-.577-.578zM19.05 18.571c-.32 0-.578.259-.578.577 0 .32.259.578.577.578.32 0 .578-.259.578-.578 0-.318-.259-.577-.578-.577z"/>
        <path fill="#E9F4F5" d="M30.354 19.726L19.627 14.53 17.318 14.942 15.586 16.257 15.586 18.571 17.895 20.303 27.398 26.653 30.354 28.428z"/>
        <path fill="#00657D" fill-rule="nonzero" stroke="#FFF" stroke-width=".1" d="M27.708 3.563c-.508 0-1.052.19-1.836.458s-1.733.63-2.726 1.023c-1.988.785-4.159 1.69-5.453 2.168-1.19.44-2.274.986-3.076 2.016l-.022.03-1.07 1.809H2.886C1.3 11.067 0 12.366 0 13.953v13.854c0 1.587 1.3 2.887 2.886 2.887h23.668c1.39 0 2.56-.998 2.829-2.312 1.117.38 2.297.58 3.494.58v-1.155c-2.14 0-4.219-.708-5.914-2.013-.01-.009-.022-.017-.034-.025l-9.814-6.484c-.023-.026-.048-.05-.075-.072-.534-.428-.877-1.065-.877-1.796 0-1.282 1.027-2.31 2.31-2.31.431 0 .978.284 1.464.52.214.105.47.066.645-.095l-.264.265 10.042 4.456c.189.084.408.061.574-.06.167-.122.257-.323.235-.528-.022-.205-.151-.383-.34-.467l-1.413-.627h.024v-4.618c0-1.587-1.299-2.886-2.886-2.886H14.867l.674-1.14c.614-.782 1.444-1.221 2.554-1.631 1.343-.498 3.502-1.4 5.474-2.179.986-.389 1.924-.746 2.676-1.003.752-.257 1.395-.397 1.463-.397.578 0 1.51-.031 3.144 1.058.812.541 3.19 2.275 5.236 3.908.305.244 1.124-.455.703-.916-1.688-1.85-4.38-3.34-5.299-3.953-1.83-1.22-3.206-1.252-3.784-1.252zM2.886 12.22h10.859c.07.013.14.013.21 0h12.599c.963 0 1.732.769 1.732 1.732v4.116l-7.862-3.489-.008-.003c-.417-.206-1.097-.624-1.944-.624-1.906 0-3.463 1.558-3.463 3.464 0 .981.458 1.826 1.112 2.453.042.12.122.222.227.292l9.944 6.57c.618.473 1.285.868 1.981 1.195-.062.905-.797 1.612-1.72 1.612H2.887c-.963 0-1.731-.769-1.731-1.732V13.953c0-.963.768-1.732 1.731-1.732zm5.773 2.31c-1.906 0-3.464 1.557-3.464 3.463 0 1.144.563 2.16 1.424 2.792-1.524.755-2.578 2.324-2.578 4.135h1.154c0-1.92 1.544-3.464 3.464-3.464s3.463 1.544 3.463 3.464h1.155c0-1.811-1.054-3.38-2.579-4.135.861-.632 1.424-1.648 1.424-2.792 0-1.906-1.557-3.464-3.463-3.464zm0 1.154c1.282 0 2.309 1.027 2.309 2.309 0 1.282-1.027 2.309-2.31 2.309-1.281 0-2.308-1.027-2.308-2.31 0-1.281 1.027-2.308 2.309-2.308z"/>
    </g>
</svg>
