<svg xmlns="http://www.w3.org/2000/svg" width="42" height="42" viewBox="0 0 42 42">
    <g fill="none" fill-rule="evenodd">
        <g>
            <g transform="translate(-786 -959) translate(786 959)">
                <circle cx="21" cy="21" r="21" fill="#E9F6F8"/>
                <g>
                    <path fill="#FFF" d="M15.75 39.375L3.63 25.158C1.21 22.864 0 19.92 0 16.328c0-5.39 1.827-10.54 6.125-13.434C8.99.964 12.453 0 16.512 0c5.962.201 10.382 2.805 13.261 7.811 2.88 5.007 2.67 10.278-.63 15.814L15.75 39.375z" transform="translate(5.25 1.313)"/>
                    <path fill="#C2DADF" d="M6.125 20.666L5.878 15.96 7.584 13.125 9.795 14 21.513 14 23.625 13.125 25.651 15.96 25.375 21 6.408 21.242z" transform="translate(5.25 1.313)"/>
                    <g>
                        <path stroke="#016479" stroke-width=".9" d="M15.75 0C6.844 0 0 6.546 0 14.875c-.005 3.603.68 6.216 2.87 9.491 2.187 3.274 12.88 15.009 12.88 15.009S26.443 27.64 28.632 24.366c2.188-3.275 2.873-5.888 2.868-9.491C31.5 6.545 24.657 0 15.75 0z" transform="translate(5.25 1.313)"/>
                        <path stroke="#016479" stroke-width=".9" d="M15.75 21H6.125v-5.189c0-.584 1.75-2.686 1.75-2.686" transform="translate(5.25 1.313)"/>
                        <path stroke="#016479" stroke-width=".9" d="M11.375 21v1.75c0 .483-.392.875-.875.875H7.875c-.483 0-.875-.392-.875-.875v-2.084" transform="translate(5.25 1.313)"/>
                        <path stroke="#EF4050" stroke-width="1.3" d="M11.375 17.5L7.875 17.5" transform="translate(5.25 1.313)"/>
                        <path stroke="#016479" stroke-width=".9" d="M15.75 21h9.625v-5.189c0-.584-1.75-2.686-1.75-2.686" transform="translate(5.25 1.313)"/>
                        <path stroke="#016479" stroke-width=".9" d="M20.125 21v1.75c0 .483.391.875.875.875h2.625c.484 0 .875-.392.875-.875v-2.084" transform="translate(5.25 1.313)"/>
                        <path stroke="#EF4050" stroke-width="1.3" d="M20.125 17.5L23.625 17.5" transform="translate(5.25 1.313)"/>
                    </g>
                    <path fill="#FFF" d="M8.75 13.125L10.129 9.351 11.375 8.75 20.125 8.75 21.875 9.675 22.75 13.563 21.513 14 9.625 14z" transform="translate(5.25 1.313)"/>
                    <path stroke="#016479" stroke-width=".9" d="M15.75 8.75h-4.392c-.636 0-1.326.65-1.766 1.693l-.842 2.682M15.75 8.75h4.392c.635 0 1.326.65 1.766 1.693l.842 2.682M15.75 14L9.625 14 7.875 13.125M7.875 13.125L6.125 11.375 4.375 11.375M15.75 14L21.875 14 23.625 13.125M23.625 13.125L25.375 11.375 27.125 11.375" transform="translate(5.25 1.313)"/>
                </g>
            </g>
        </g>
    </g>
</svg>
