<svg xmlns="http://www.w3.org/2000/svg" width="32" height="32" viewBox="0 0 32 32">
    <g fill="none" fill-rule="evenodd">
        <path fill="#23A5B9" fill-rule="nonzero" stroke="#23A5B9" stroke-width=".5" d="M7.63 2.337l.174.006c.429.034.81.224 1.053.552.214.294 1.026 1.499 1.893 2.784.608.906 1.164 1.735 1.545 2.307.377.574.554 1.042.597 1.444.053.492-.098.878-.291 1.24-.088.163-.223.404-.376.674-.58 1.008-.934 1.616-1.081 1.867.221.596 1.077 1.865 3.857 4.593 2.777 2.727 4.07 3.57 4.41 3.781.7-.246 2.263-1.125 2.84-1.425.653-.339 1.389-.54 2.031-.155.299.18 1.315.836 2.423 1.557l.21.135.51.334c1.276.832 2.498 1.635 2.745 1.805.347.239.54.62.572 1.045.032.443-.109.933-.431 1.384-.315.444-1.09 1.402-1.964 2.298-.433.442-.883.863-1.327 1.192-.404.3-.77.578-1.31.562-.528-.017-2.095-.071-4.49-1.177-2.431-1.122-5.765-3.301-10.09-7.548-4.32-4.247-6.539-7.52-7.681-9.907-1.125-2.353-1.18-3.887-1.198-4.406-.016-.53.266-.887.571-1.283.332-.435.763-.877 1.213-1.302.912-.86 1.888-1.622 2.34-1.932.35-.242.723-.377 1.08-.414l.176-.01zm.014.823h-.095c-.198.008-.438.069-.703.252-.35.237-1.369 1.025-2.243 1.848-.44.418-.849.848-1.126 1.21-.203.267-.312.514-.407.824.018.582.054 1.823 1.119 4.053 1.075 2.25 3.22 5.459 7.523 9.684 4.304 4.23 7.571 6.337 9.86 7.39 2.273 1.05 3.538 1.083 4.324 1.053.113-.048.361-.153.63-.35.368-.273.804-.676 1.228-1.109.838-.856 1.641-1.858 1.886-2.204.16-.222.256-.417.057-1.328-.151-.104-1.422-.936-2.743-1.797h0l-.495-.323c-1.234-.804-2.396-1.556-2.603-1.681-.062-.037-.547-.169-1.578.369-.806.432-2.442 1.33-3.046 1.39-.328-.205-1.977-1.294-4.815-4.08-3.015-2.96-4.085-4.57-4.155-5.243.221-.38 1.351-2.324 1.614-2.815.105-.196.174-.382.186-1.2-.158-.246-1.062-1.597-1.949-2.916-.913-1.355-1.876-2.741-2.382-3.02h0l-.087-.007z"/>
        <path d="M0 0.123H32V31.55H0z"/>
    </g>
</svg>
