<svg xmlns="http://www.w3.org/2000/svg" width="38" height="38" viewBox="0 0 38 38">
    <g fill="none" fill-rule="evenodd">
        <path d="M0 0H38V38H0z"/>
        <circle cx="19" cy="19" r="19" fill="#E9F4F5"/>
        <path fill="#FFF" stroke="#FFF" d="M6.938 1.188h24.125c.552 0 1 .447 1 1v28.875c0 .552-.448 1-1 1H5.938h0V2.186c0-.552.447-1 1-1z"/>
        <rect width="24.938" height="2.375" x="5.938" y="33.25" fill="#A3C8D0" rx="1"/>
        <path fill="#EF4050" d="M8.906 2.375c-.33 0-.594.267-.594.594v1.187c0 .327.265.594.594.594.33 0 .594-.267.594-.594V2.97c0-.327-.264-.594-.594-.594zM12.469 2.375c-.33 0-.594.267-.594.594v1.187c0 .327.264.594.594.594.33 0 .594-.267.594-.594V2.97c0-.327-.265-.594-.594-.594zM16.031 2.375c-.33 0-.593.267-.593.594v1.187c0 .327.264.594.593.594.33 0 .594-.267.594-.594V2.97c0-.327-.264-.594-.594-.594zM18.406 2.375c-.33 0-.593.267-.593.594v1.187c0 .327.264.594.593.594.33 0 .594-.267.594-.594V2.97c0-.327-.264-.594-.594-.594zM21.969 2.375c-.33 0-.594.267-.594.594v1.187c0 .327.264.594.594.594.33 0 .593-.267.593-.594V2.97c0-.327-.264-.594-.593-.594zM25.531 2.375c-.33 0-.593.267-.593.594v1.187c0 .327.264.594.593.594.33 0 .594-.267.594-.594V2.97c0-.327-.264-.594-.594-.594zM29.094 2.375c-.33 0-.594.267-.594.594v1.187c0 .327.264.594.594.594.33 0 .593-.267.593-.594V2.97c0-.327-.264-.594-.593-.594zM12.554 26.125c-.377 0-.679.267-.679.594 0 .327.302.593.679.593h8.142c.377 0 .679-.266.679-.593 0-.327-.302-.594-.679-.594h-8.142zM23.156 26.125c-.33 0-.593.267-.593.594 0 .327.264.593.593.593h2.375c.33 0 .594-.266.594-.593 0-.327-.264-.594-.594-.594h-2.375zM13.722 28.5c-.366 0-.66.267-.66.594 0 .327.294.593.66.593h10.556c.366 0 .66-.266.66-.593 0-.327-.294-.594-.66-.594H13.722z"/>
        <circle cx="19" cy="15.438" r="7.125" fill="#E9F4F5"/>
        <path fill="#02647A" fill-rule="nonzero" stroke="#FFF" stroke-width=".4" d="M7.34 0C5.912 0 4.75 1.161 4.75 2.59v31.74c0 1.07.873 1.943 1.943 1.943h23.318c1.07 0 1.944-.873 1.944-1.943v-.767c.751-.268 1.295-.982 1.295-1.824V1.943C33.25.873 32.377 0 31.307 0H7.34zm0 1.295h23.967c.357 0 .648.291.648.648v.648c-.36 0-.648.29-.648.648v1.295c0 .357.288.648.648.648v26.557c0 .356-.291.647-.648.647H6.653c-.188.013-.398.056-.608.132V5.182c.36 0 .648-.291.648-.648V3.24c0-.357-.288-.648-.648-.648 0-.714.582-1.296 1.296-1.296zM19 7.773c-4.286 0-7.773 3.486-7.773 7.772 0 4.287 3.487 7.773 7.773 7.773s7.773-3.486 7.773-7.773c0-4.286-3.487-7.772-7.773-7.772zm-.648 1.432v5.693H15.78c.144-2.789 1.22-5.119 2.573-5.693zm1.296 0c1.353.574 2.429 2.904 2.573 5.693h-2.573V9.205zm-3.773.67c-.784 1.273-1.298 3.029-1.389 5.023h-1.93c.215-2.166 1.503-4.018 3.32-5.023zm6.25 0c1.816 1.007 3.104 2.86 3.32 5.023h-1.931c-.091-1.994-.605-3.75-1.39-5.023zm-9.57 6.318h1.931c.091 1.994.605 3.75 1.39 5.023-1.817-1.005-3.105-2.857-3.32-5.023zm3.224 0h2.573v5.693c-1.353-.574-2.429-2.905-2.573-5.693zm3.869 0h2.573c-.144 2.788-1.22 5.119-2.573 5.693v-5.693zm3.866 0h1.93c-.215 2.166-1.503 4.018-3.32 5.023.785-1.273 1.299-3.029 1.39-5.023zM6.694 33.682h23.965v.648c0 .356-.29.647-.648.647H6.693c-.357 0-.648-.29-.648-.647 0-.534.486-.633.648-.648z"/>
    </g>
</svg>
