<svg xmlns="http://www.w3.org/2000/svg" width="38" height="38" viewBox="0 0 38 38">
    <g fill="none" fill-rule="evenodd">
        <path fill="#A3C8D0" d="M4.343 14.25L4.343 5.938 5.522 5.938 13.626 5.938 14.114 7.562 13.626 9.994 12.682 10.492 11.488 10.781 11.488 14.25z"/>
        <path fill="#FFF" fill-rule="nonzero" stroke="#FFF" stroke-width=".2" d="M7.057 8.313c-.299 0-.543.264-.543.593 0 .33.244.594.543.594H11.4c.299 0 .543-.264.543-.594 0-.33-.244-.594-.543-.594H7.057z"/>
        <path fill="#FFF" d="M5.738 25.613L1.542 20.315 1.086 18.491 1.086 15.203 1.542 14.564 23.719 14.564 24.918 13.925 26.716 11.921 27.978 10.688 38 10.688 31.555 24.898 30.312 24.898 29.19 24.3 25.394 26.125 23.719 26.125 20.01 24.3 18.924 24.3 15.927 26.125 14.369 26.125 9.933 24.3 6.337 26.125z"/>
        <path fill="#00657D" fill-rule="nonzero" stroke="#FFF" stroke-width=".2" d="M8.906 0c-.327 0-.594.293-.594.659v4.61H7.125V3.293c0-.365-.267-.658-.594-.658-.327 0-.594.293-.594.658V5.27H4.75c-.654 0-1.188.592-1.188 1.317v7.904h-1.78C.8 14.49 0 15.378 0 16.466v1.58c0 1.26.353 2.467 1.023 3.486l3.25 4.957c-.293-.054-.58-.149-.85-.298l-.781-.435c-.622-.345-1.29-.563-1.981-.65-.322-.037-.62.218-.656.58-.037.361.197.688.524.729.552.07 1.085.244 1.582.52l.781.432c1.164.646 2.554.646 3.718 0l2.625-1.454c.167-.095.367-.095.531 0l2.626 1.454c1.164.646 2.553.646 3.718 0l2.625-1.454c.167-.095.366-.095.531 0l2.626 1.454c1.164.646 2.553.646 3.717 0l2.626-1.454c.167-.095.366-.095.53 0l2.626 1.454c.582.324 1.22.484 1.858.484.64 0 1.278-.16 1.86-.484l.782-.432c.496-.276 1.03-.45 1.581-.52.327-.041.56-.368.525-.728-.038-.363-.332-.618-.657-.582-.693.088-1.359.306-1.983.651l-.781.435c-.83.46-1.823.46-2.654 0l-.489-.273 6.503-14.425c.093-.206.084-.448-.025-.644-.11-.192-.3-.31-.506-.31H27.99c-.995 0-1.918.547-2.47 1.466l-.965 1.605c-.332.55-.884.88-1.482.88H11.875v-2.264c0-.304.185-.566.45-.638l.577-.162c.793-.219 1.348-1.009 1.348-1.917V6.586c0-.725-.534-1.317-1.188-1.317H9.5V.66C9.5.293 9.233 0 8.906 0zM4.75 6.586h8.312V9.51c0 .304-.185.566-.45.638l-.577.162c-.794.219-1.348 1.009-1.348 1.917v2.264H4.75V6.586zm23.239 5.27h8.456L33.23 18.99c-.05-.309-.282-.548-.575-.548-.327 0-.593.293-.593.658v1.318c0 .231.113.427.278.545l-1.97 4.366-1.073-.597c-.499-.275-1.095-.275-1.596 0l-2.625 1.459c-.83.46-1.82.46-2.653 0l-2.626-1.459c-.498-.275-1.094-.275-1.595 0l-2.626 1.459c-.83.46-1.82.46-2.653 0l-2.625-1.459c-.5-.275-1.095-.275-1.596 0l-2.626 1.459c-.132.072-.27.131-.412.18l-3.681-5.614c-.522-.792-.796-1.731-.796-2.711v-1.58c0-.363.267-.659.594-.659h21.291c.995 0 1.918-.548 2.47-1.466l.965-1.606c.332-.55.884-.88 1.482-.88zm1.698 1.317c-.981 0-1.782.887-1.782 1.976 0 1.088.8 1.976 1.782 1.976.98 0 1.78-.888 1.78-1.976 0-1.089-.8-1.976-1.78-1.976zm0 1.317c.327 0 .593.296.593.659 0 .362-.266.658-.593.658-.327 0-.594-.296-.594-.658 0-.363.267-.659.594-.659zm-1.188 13.327c-.274 0-.547.072-.798.208-.292.165-.41.561-.264.885.146.325.5.456.795.296.167-.095.367-.095.532 0l2.625 1.454c.582.324 1.22.484 1.86.484.638 0 1.276-.16 1.858-.484l.781-.432c.497-.276 1.03-.45 1.582-.52.327-.041.559-.368.522-.728-.035-.363-.327-.62-.652-.581-.693.087-1.359.306-1.983.65l-.781.435c-.83.46-1.823.46-2.654 0l-2.625-1.459c-.25-.136-.524-.208-.798-.208zm-19 .003c-.273 0-.547.07-.797.205l-2.626 1.46c-.83.46-1.822.46-2.653 0-.294-.163-.651-.032-.798.293-.146.324-.027.72.265.882 1.164.646 2.556.646 3.718 0l2.625-1.454c.167-.095.366-.095.533 0l2.626 1.454c.58.324 1.22.484 1.858.484.637 0 1.277-.16 1.857-.484l2.626-1.454c.167-.095.366-.095.533 0l2.626 1.454c.292.165.649.03.795-.293.146-.324.028-.72-.264-.883l-2.626-1.459c-.498-.275-1.094-.275-1.595 0l-2.626 1.46c-.83.46-1.823.46-2.653 0l-2.625-1.46c-.25-.136-.525-.205-.798-.205zm16.646 1.13c-.076.004-.153.027-.227.069l-.842.465c-.179.098-.369.178-.561.234-.318.096-.506.456-.422.806.071.296.31.491.575.491.048 0 .1-.008.15-.02.274-.083.539-.194.789-.335l.842-.466c.292-.162.413-.558.267-.882-.112-.245-.339-.378-.57-.363zM9.5 31.112c-.274 0-.548.07-.798.206l-2.626 1.458c-.83.46-1.822.46-2.653 0l-.784-.434c-.621-.345-1.287-.564-1.98-.651-.323-.036-.617.218-.654.581-.037.363.197.687.524.728.552.07 1.085.245 1.582.52l.781.432c1.164.646 2.554.646 3.718 0L9.235 32.5c.167-.096.367-.096.531 0l2.626 1.453c1.164.646 2.553.646 3.718 0l2.625-1.453c.167-.096.366-.096.531 0l2.626 1.453c.582.324 1.22.484 1.857.484.64 0 1.278-.16 1.858-.484l2.625-1.453c.167-.096.367-.096.534 0l2.625 1.453c1.162.646 2.554.646 3.716 0 .294-.162.413-.558.266-.882-.146-.324-.503-.456-.797-.294-.83.46-1.823.46-2.654 0l-2.625-1.458c-.499-.276-1.095-.276-1.596 0l-2.625 1.458c-.83.46-1.823.46-2.653 0l-2.626-1.458c-.498-.276-1.094-.276-1.595 0l-2.626 1.458c-.83.46-1.823.46-2.653 0l-2.625-1.458c-.25-.137-.525-.206-.798-.206z"/>
        <path fill="#EF4050" d="M2.714 17.813c-.299 0-.543.264-.543.593v1.188c0 .33.244.593.543.593.3 0 .543-.264.543-.593v-1.188c0-.33-.244-.593-.543-.593zM5.971 17.813c-.299 0-.542.264-.542.593v1.188c0 .33.243.593.542.593.3 0 .543-.264.543-.593v-1.188c0-.33-.244-.593-.543-.593zM9.229 17.813c-.3 0-.543.264-.543.593v1.188c0 .33.244.593.543.593.299 0 .542-.264.542-.593v-1.188c0-.33-.243-.593-.542-.593zM11.4 17.813c-.299 0-.543.264-.543.593v1.188c0 .33.244.593.543.593.299 0 .543-.264.543-.593v-1.188c0-.33-.244-.593-.543-.593zM14.657 17.813c-.299 0-.543.264-.543.593v1.188c0 .33.244.593.543.593.3 0 .543-.264.543-.593v-1.188c0-.33-.244-.593-.543-.593zM17.914 17.813c-.299 0-.543.264-.543.593v1.188c0 .33.244.593.543.593.3 0 .543-.264.543-.593v-1.188c0-.33-.244-.593-.543-.593zM21.171 17.813c-.299 0-.542.264-.542.593v1.188c0 .33.243.593.542.593.3 0 .543-.264.543-.593v-1.188c0-.33-.244-.593-.543-.593zM23.343 17.813c-.3 0-.543.264-.543.593v1.188c0 .33.244.593.543.593.299 0 .543-.264.543-.593v-1.188c0-.33-.244-.593-.543-.593zM26.6 17.813c-.299 0-.543.264-.543.593v1.188c0 .33.244.593.543.593.299 0 .543-.264.543-.593v-1.188c0-.33-.244-.593-.543-.593zM29.857 17.813c-.299 0-.543.264-.543.593v1.188c0 .33.244.593.543.593.3 0 .543-.264.543-.593v-1.188c0-.33-.244-.593-.543-.593z"/>
        <path d="M0 0H38V38H0z"/>
        <circle cx="19" cy="19.018" r="18.406" fill="#E9F4F5"/>
        <path fill="#A3C8D0" d="M4.343 14.25L4.343 5.938 5.522 5.938 13.626 5.938 14.114 7.562 13.626 9.994 12.682 10.492 11.488 10.781 11.488 14.25z"/>
        <path fill="#FFF" fill-rule="nonzero" stroke="#FFF" stroke-width=".2" d="M7.057 8.313c-.299 0-.543.264-.543.593 0 .33.244.594.543.594H11.4c.299 0 .543-.264.543-.594 0-.33-.244-.594-.543-.594H7.057z"/>
        <path fill="#FFF" d="M5.738 25.613L1.542 20.315 1.086 18.491 1.086 15.203 1.542 14.564 23.719 14.564 24.918 13.925 26.716 11.921 27.978 10.688 38 10.688 31.555 24.898 30.312 24.898 29.19 24.3 25.394 26.125 23.719 26.125 20.01 24.3 18.924 24.3 15.927 26.125 14.369 26.125 9.933 24.3 6.337 26.125z"/>
        <path fill="#00657D" fill-rule="nonzero" stroke="#FFF" stroke-width=".2" d="M8.906 0c-.327 0-.594.293-.594.659v4.61H7.125V3.293c0-.365-.267-.658-.594-.658-.327 0-.594.293-.594.658V5.27H4.75c-.654 0-1.188.592-1.188 1.317v7.904h-1.78C.8 14.49 0 15.378 0 16.466v1.58c0 1.26.353 2.467 1.023 3.486l3.25 4.957c-.293-.054-.58-.149-.85-.298l-.781-.435c-.622-.345-1.29-.563-1.981-.65-.322-.037-.62.218-.656.58-.037.361.197.688.524.729.552.07 1.085.244 1.582.52l.781.432c1.164.646 2.554.646 3.718 0l2.625-1.454c.167-.095.367-.095.531 0l2.626 1.454c1.164.646 2.553.646 3.718 0l2.625-1.454c.167-.095.366-.095.531 0l2.626 1.454c1.164.646 2.553.646 3.717 0l2.626-1.454c.167-.095.366-.095.53 0l2.626 1.454c.582.324 1.22.484 1.858.484.64 0 1.278-.16 1.86-.484l.782-.432c.496-.276 1.03-.45 1.581-.52.327-.041.56-.368.525-.728-.038-.363-.332-.618-.657-.582-.693.088-1.359.306-1.983.651l-.781.435c-.83.46-1.823.46-2.654 0l-.489-.273 6.503-14.425c.093-.206.084-.448-.025-.644-.11-.192-.3-.31-.506-.31H27.99c-.995 0-1.918.547-2.47 1.466l-.965 1.605c-.332.55-.884.88-1.482.88H11.875v-2.264c0-.304.185-.566.45-.638l.577-.162c.793-.219 1.348-1.009 1.348-1.917V6.586c0-.725-.534-1.317-1.188-1.317H9.5V.66C9.5.293 9.233 0 8.906 0zM4.75 6.586h8.312V9.51c0 .304-.185.566-.45.638l-.577.162c-.794.219-1.348 1.009-1.348 1.917v2.264H4.75V6.586zm23.239 5.27h8.456L33.23 18.99c-.05-.309-.282-.548-.575-.548-.327 0-.593.293-.593.658v1.318c0 .231.113.427.278.545l-1.97 4.366-1.073-.597c-.499-.275-1.095-.275-1.596 0l-2.625 1.459c-.83.46-1.82.46-2.653 0l-2.626-1.459c-.498-.275-1.094-.275-1.595 0l-2.626 1.459c-.83.46-1.82.46-2.653 0l-2.625-1.459c-.5-.275-1.095-.275-1.596 0l-2.626 1.459c-.132.072-.27.131-.412.18l-3.681-5.614c-.522-.792-.796-1.731-.796-2.711v-1.58c0-.363.267-.659.594-.659h21.291c.995 0 1.918-.548 2.47-1.466l.965-1.606c.332-.55.884-.88 1.482-.88zm1.698 1.317c-.981 0-1.782.887-1.782 1.976 0 1.088.8 1.976 1.782 1.976.98 0 1.78-.888 1.78-1.976 0-1.089-.8-1.976-1.78-1.976zm0 1.317c.327 0 .593.296.593.659 0 .362-.266.658-.593.658-.327 0-.594-.296-.594-.658 0-.363.267-.659.594-.659zm-1.188 13.327c-.274 0-.547.072-.798.208-.292.165-.41.561-.264.885.146.325.5.456.795.296.167-.095.367-.095.532 0l2.625 1.454c.582.324 1.22.484 1.86.484.638 0 1.276-.16 1.858-.484l.781-.432c.497-.276 1.03-.45 1.582-.52.327-.041.559-.368.522-.728-.035-.363-.327-.62-.652-.581-.693.087-1.359.306-1.983.65l-.781.435c-.83.46-1.823.46-2.654 0l-2.625-1.459c-.25-.136-.524-.208-.798-.208zm-19 .003c-.273 0-.547.07-.797.205l-2.626 1.46c-.83.46-1.822.46-2.653 0-.294-.163-.651-.032-.798.293-.146.324-.027.72.265.882 1.164.646 2.556.646 3.718 0l2.625-1.454c.167-.095.366-.095.533 0l2.626 1.454c.58.324 1.22.484 1.858.484.637 0 1.277-.16 1.857-.484l2.626-1.454c.167-.095.366-.095.533 0l2.626 1.454c.292.165.649.03.795-.293.146-.324.028-.72-.264-.883l-2.626-1.459c-.498-.275-1.094-.275-1.595 0l-2.626 1.46c-.83.46-1.823.46-2.653 0l-2.625-1.46c-.25-.136-.525-.205-.798-.205zm16.646 1.13c-.076.004-.153.027-.227.069l-.842.465c-.179.098-.369.178-.561.234-.318.096-.506.456-.422.806.071.296.31.491.575.491.048 0 .1-.008.15-.02.274-.083.539-.194.789-.335l.842-.466c.292-.162.413-.558.267-.882-.112-.245-.339-.378-.57-.363zM9.5 31.112c-.274 0-.548.07-.798.206l-2.626 1.458c-.83.46-1.822.46-2.653 0l-.784-.434c-.621-.345-1.287-.564-1.98-.651-.323-.036-.617.218-.654.581-.037.363.197.687.524.728.552.07 1.085.245 1.582.52l.781.432c1.164.646 2.554.646 3.718 0L9.235 32.5c.167-.096.367-.096.531 0l2.626 1.453c1.164.646 2.553.646 3.718 0l2.625-1.453c.167-.096.366-.096.531 0l2.626 1.453c.582.324 1.22.484 1.857.484.64 0 1.278-.16 1.858-.484l2.625-1.453c.167-.096.367-.096.534 0l2.625 1.453c1.162.646 2.554.646 3.716 0 .294-.162.413-.558.266-.882-.146-.324-.503-.456-.797-.294-.83.46-1.823.46-2.654 0l-2.625-1.458c-.499-.276-1.095-.276-1.596 0l-2.625 1.458c-.83.46-1.823.46-2.653 0l-2.626-1.458c-.498-.276-1.094-.276-1.595 0l-2.626 1.458c-.83.46-1.823.46-2.653 0l-2.625-1.458c-.25-.137-.525-.206-.798-.206z"/>
        <path fill="#EF4050" d="M2.714 17.813c-.299 0-.543.264-.543.593v1.188c0 .33.244.593.543.593.3 0 .543-.264.543-.593v-1.188c0-.33-.244-.593-.543-.593zM5.971 17.813c-.299 0-.542.264-.542.593v1.188c0 .33.243.593.542.593.3 0 .543-.264.543-.593v-1.188c0-.33-.244-.593-.543-.593zM9.229 17.813c-.3 0-.543.264-.543.593v1.188c0 .33.244.593.543.593.299 0 .542-.264.542-.593v-1.188c0-.33-.243-.593-.542-.593zM11.4 17.813c-.299 0-.543.264-.543.593v1.188c0 .33.244.593.543.593.299 0 .543-.264.543-.593v-1.188c0-.33-.244-.593-.543-.593zM14.657 17.813c-.299 0-.543.264-.543.593v1.188c0 .33.244.593.543.593.3 0 .543-.264.543-.593v-1.188c0-.33-.244-.593-.543-.593zM17.914 17.813c-.299 0-.543.264-.543.593v1.188c0 .33.244.593.543.593.3 0 .543-.264.543-.593v-1.188c0-.33-.244-.593-.543-.593zM21.171 17.813c-.299 0-.542.264-.542.593v1.188c0 .33.243.593.542.593.3 0 .543-.264.543-.593v-1.188c0-.33-.244-.593-.543-.593zM23.343 17.813c-.3 0-.543.264-.543.593v1.188c0 .33.244.593.543.593.299 0 .543-.264.543-.593v-1.188c0-.33-.244-.593-.543-.593zM26.6 17.813c-.299 0-.543.264-.543.593v1.188c0 .33.244.593.543.593.299 0 .543-.264.543-.593v-1.188c0-.33-.244-.593-.543-.593zM29.857 17.813c-.299 0-.543.264-.543.593v1.188c0 .33.244.593.543.593.3 0 .543-.264.543-.593v-1.188c0-.33-.244-.593-.543-.593z"/>
    </g>
</svg>
