<svg xmlns="http://www.w3.org/2000/svg" width="38" height="40" viewBox="0 0 38 40">
    <g fill="none" fill-rule="evenodd">
        <circle cx="18.406" cy="18.406" r="18.406" fill="#E9F4F5"/>
        <path fill="#FFF" d="M8.176 37.078L9.398 33.871 9.398 30.809 5.324 28.069 2.348 24.291 0.482 20.467 0.482 16.051 2.348 11.857 7.096 7.09 12.469 4.241 18.285 3.595 24.252 4.241 30.418 7.09 34.548 10.241 36.813 14.925 37.397 20.297 35.146 25.873 31.731 28.887 26.702 31.715 21.963 32.748 18.285 32.748 14.826 32.284 13.117 34.556 10.905 36.354z"/>
        <ellipse cx="19" cy="18.109" fill="#E9F4F5" rx="13.656" ry="10.984"/>
        <g fill="#02647A" fill-rule="nonzero">
            <path stroke="#FFF" stroke-width=".1" d="M19 .084C8.523.084 0 6.9 0 15.276c0 5.269 3.3 10.046 8.851 12.848-.103 1.393-.48 3.715-1.784 5.888-.123.203-.112.46.027.652.113.158.293.247.482.247.042 0 .086-.004.129-.014 4.494-.999 6.602-3.562 7.364-4.758 1.298.218 2.619.33 3.932.33 10.476 0 19-6.816 19-15.192C38 6.899 29.477.084 19 .084zm0 29.196c-1.378 0-2.765-.128-4.122-.382-.252-.048-.507.073-.63.298-.4.729-1.899 3.003-5.512 4.189 1.016-2.217 1.27-4.387 1.324-5.592.01-.238-.122-.46-.336-.562-5.345-2.572-8.537-7.041-8.537-11.954C1.188 7.554 9.178 1.272 19 1.272s17.813 6.282 17.813 14.004c0 7.722-7.991 14.004-17.813 14.004z" transform="translate(0 2.969)"/>
            <path d="M5.37 15.42C5.37 9.527 11.483 4.732 19 4.732c2.414 0 4.787.502 6.86 1.454.298.136.652.006.788-.293.137-.298.006-.65-.293-.787C24.128 4.084 21.584 3.545 19 3.545c-8.17 0-14.818 5.327-14.818 11.875 0 .798.099 1.596.295 2.372.068.27.31.449.575.449.048 0 .098-.006.146-.018.319-.08.51-.403.43-.721-.171-.682-.259-1.382-.259-2.082zm26.975-5.174c-.17-.281-.535-.371-.816-.202-.28.17-.37.535-.201.816.865 1.431 1.303 2.965 1.303 4.56 0 4.865-4.192 9.118-10.193 10.343-.321.066-.529.38-.463.701.057.281.305.475.581.475.04 0 .079-.004.12-.012 6.56-1.34 11.142-6.072 11.142-11.507 0-1.814-.496-3.555-1.473-5.174z" transform="translate(0 2.969)"/>
            <path stroke="#E9F4F5" stroke-width=".15" d="M18.874 19.576c.063 0 .127-.01.19-.032.31-.104.477-.441.372-.752l-3.206-9.5c-.081-.24-.307-.404-.562-.404-.255 0-.481.163-.562.404l-3.207 9.5c-.105.31.062.648.373.752.309.106.647-.062.752-.372l1.072-3.176c.03.004.057.017.088.017h2.968c.031 0 .058-.013.088-.017l1.072 3.176c.083.248.315.404.562.404zm-4.383-4.75l1.177-3.487 1.177 3.487H14.49z" transform="translate(0 2.969)"/>
            <path stroke="#E9F4F5" stroke-width=".15" d="M26.712 21.95c.327 0 .593-.265.593-.593 0-.328-.266-.594-.593-.594-.914 0-1.756-.3-2.443-.8 1.142-1.177 1.849-2.778 1.849-4.543v-.594h1.781c.328 0 .594-.266.594-.594 0-.328-.266-.594-.594-.594h-4.156v-1.78c0-.329-.266-.595-.594-.595-.328 0-.594.266-.594.594v1.781h-2.968c-.328 0-.594.266-.594.594 0 .328.266.594.594.594h5.343v.594c0 1.443-.577 2.752-1.51 3.715-.54-.701-.865-1.577-.865-2.528 0-.328-.266-.594-.593-.594-.328 0-.594.266-.594.594 0 1.238.427 2.376 1.137 3.284-.84.55-1.841.872-2.918.872-.328 0-.594.266-.594.594 0 .328.266.594.594.594 1.4 0 2.694-.447 3.758-1.199.92.748 2.091 1.199 3.367 1.199z" transform="translate(0 2.969)"/>
        </g>
        <path fill="#EF4050" d="M18.828 27.704c-.327.028-.569.316-.54.643l.102 1.183c.026.31.285.543.59.543.018 0 .035 0 .052-.003.327-.027.569-.315.54-.642l-.102-1.183c-.028-.327-.322-.577-.642-.54zM7.243 22.53l-.974.68c-.269.188-.334.558-.146.827.115.165.3.254.487.254.117 0 .235-.035.34-.108l.972-.68c.27-.188.335-.558.147-.826-.188-.269-.557-.334-.826-.147zM9.325 25.037l-.764.909c-.211.25-.178.625.073.836.11.094.247.14.381.14.17 0 .338-.073.455-.213l.764-.909c.211-.25.179-.625-.073-.836-.25-.211-.625-.178-.836.073zM12.775 26.632c-.297-.139-.651-.01-.79.286l-.502 1.076c-.14.297-.011.65.286.79.081.037.167.055.25.055.224 0 .438-.126.539-.343l.503-1.075c.139-.297.011-.65-.286-.789zM15.73 27.566c-.323-.056-.63.159-.688.482l-.207 1.169c-.057.323.158.63.481.688.035.006.07.009.104.009.283 0 .533-.203.585-.49l.207-1.17c.057-.323-.159-.63-.482-.688zM29.748 11.821c.116.116.268.175.421.175.151 0 .303-.058.42-.173.231-.232.233-.608.001-.84-.49-.492-1.033-.957-1.616-1.382-.265-.193-.636-.135-.83.13-.192.265-.134.636.131.83.532.388 1.028.812 1.473 1.26z"/>
    </g>
</svg>
