<svg xmlns="http://www.w3.org/2000/svg" width="42" height="42" viewBox="0 0 42 42">
    <g fill="none" fill-rule="evenodd">
        <g>
            <g transform="translate(-974 -313) translate(974 313)">
                <circle cx="21" cy="21" r="21" fill="#E9F4F5"/>
                <path fill="#FFF" d="M2 36.193L2 8.925 14.206 5 28.29 9.943 40.124 5.635 40.784 6.731 40.784 33.381 40.124 34.979 28.29 38.807 14.206 33.381 2.624 37.217z"/>
                <g fill-rule="nonzero" stroke="#FFF">
                    <path fill="#00657D" stroke-width=".2" d="M39.473 1.111c-.329-.234-.755-.294-1.136-.16L27.09 4.888c-.137.047-.286.046-.42-.003L13.727.179c-.377-.136-.795-.149-1.18-.034L.892 3.643C.358 3.803 0 4.283 0 4.84v27.445c0 .4.184.765.504 1.003.32.238.724.308 1.105.195l11.3-3.39c.127-.039.267-.034.392.011l12.941 4.707c.207.075.424.112.64.112.21 0 .42-.035.62-.105l11.66-4.081c.502-.175.838-.65.838-1.18V2.13c0-.404-.197-.785-.527-1.02zM27.09 33.638c-.137.047-.286.046-.42-.003l-12.942-4.706c-.205-.075-.424-.112-.641-.112-.182 0-.363.026-.538.078L1.25 32.285V4.84l11.658-3.497c.128-.039.267-.035.393.01L26.24 6.06c.407.147.853.15 1.262.008L38.75 2.13v27.426l-11.66 4.08z" transform="translate(1 4)"/>
                    <path fill="#006680" stroke-width=".2" d="M36.977 5.204c-.326-.235-.749-.297-1.13-.168l-8.965 3.052L13.53 3.232c-.252-.092-.521-.1-.778-.026L3.4 5.937c-.529.154-.899.647-.899 1.2v21.198c0 .397.182.761.5 1s.718.312 1.1.2l9.2-2.683c.332-.097.522-.444.426-.775-.096-.332-.441-.524-.775-.425L3.75 28.333V7.136l9.354-2.729 13.352 4.856c.266.096.56.1.828.008L36.25 6.22V27.4l-9.576 3.258c-.326.111-.502.466-.39.793.088.26.331.424.591.424.066 0 .135-.011.201-.034l9.576-3.259c.507-.17.848-.647.848-1.183V6.22c0-.402-.195-.782-.523-1.016z" transform="translate(1 4)"/>
                    <path fill="#00657D" stroke-width=".3" d="M26.92 19.7h.605c.217 0 .449-.132.563-.317.207-.337.08-.866-.026-1.179.016-.029.03-.058.042-.089.07-.069.194-.173.26-.23.09-.076.166-.142.207-.183.046-.046.155-.155.514-.741.084-.137.139-.285.164-.442.021-.129.039-.236.052-.327.233.002.448-.1.568-.294l.553-.885c.068-.109.119-.228.152-.357l.075-.345.182.013c.06.15.176.272.325.338.2.09.712.274 1.112.014.173-.112.29-.283.336-.483.017-.008.038-.016.065-.025.35-.117.625-.39.755-.747l.13-.36c.124-.338.093-.714-.084-1.028-.177-.316-.482-.537-.836-.607l-1.056-.212c-.08-.016-.162-.024-.243-.024l-2.058.002-1.225-.755c-.262-.16-.57-.217-.87-.163l-1.03.187c-.096.018-.19.048-.279.087l-.99.44v-.141c0-.193-.089-.374-.24-.493-.152-.118-.35-.16-.536-.113l-.968.242c-.151.038-.283.13-.369.26-.095.143-.238.339-.284.388-.194.193-.241.455-.285.785h-.527l-1.041-.26c-.417-.104-.87.02-1.175.325l-.602.602c-.08.08-.137.18-.165.29l-.03.12-.53.133h-.286c-.209 0-.404.105-.52.278l-.242.364c-.04.059-.07.125-.087.195-.137.549-.082.952.165 1.199l.225.225c-.254.257-.39.622-.348 1.004l.036.272-.287.286c-.293.294-.42.712-.338 1.118l.105.521c.09.456.425.82.873.949l.406.116c.11.031.225.048.339.048h.327l.05.066v.77c0 .149.027.294.08.435l.268.715c.072.195.195.37.354.507l.727.623c.113.097.258.151.406.151h.605c.143 0 .28-.048.391-.137.19-.152.646-.52.776-.65.12-.12.342-.342.184-1.341v-.453l.196-.587.193-.386.38-.476.647-.431.01-.007.029.049.536.858c.095.151.249.255.425.285.177.03.357-.016.496-.128l.605-.484c.049-.039.091-.086.127-.137l.117-.168.247.555c.101.224.325.37.572.37z" transform="translate(1 4)"/>
                    <path fill="#00657D" stroke-width=".3" d="M24.446 20.626c-.114-.185-.315-.297-.532-.297h-.748c-.174 0-.351.078-.47.207-.172.187-.257.343-.152 1.593.02.242.178.451.407.535.07.025.143.038.215.038.163 0 .323-.064.442-.183l.32-.32c.083-.082.15-.177.206-.286l.34-.68c.097-.193.087-.424-.028-.607zm3.098 2.636l.279 1.044c.109.408.41.74.806.89l.34.127c.15.056.305.083.46.083.342 0 .679-.133.93-.383l.138-.139c.019-.018.049-.023.073-.01l.477.26c.606.331 1.367.134 1.736-.447l.375-.588c.268-.42.272-.968.01-1.392l-.659-1.07c-.236-.386-.664-.626-1.118-.626h-1.345c-.215 0-.421.05-.61.15-.262.138-.76.394-1.145.56-.592.255-.912.917-.747 1.541zm1.242-.393c.424-.183.954-.456 1.26-.608l1.399.03.66 1.07c.013.02.013.047 0 .066l-.376.59c-.017.026-.052.037-.082.02l-.478-.26c-.507-.277-1.148-.184-1.556.224l-.137.138c-.018.017-.045.022-.067.015l-.378-.17-.278-1.043c-.009-.03.005-.061.033-.072zm4.822 2.834c.119 0 .246-.022.378-.066.07-.023.135-.058.193-.105l.367-.293c.04-.033.077-.07.109-.113l.22-.294c.082-.108.126-.24.126-.375v-.66c0-.27-.172-.508-.428-.594-.255-.084-.535.003-.697.218l-.195.259-.628.629c-.07.069-.12.152-.152.245-.123.372-.068.712.15.932.143.143.337.216.557.216zm-3.96-7.66c.11.218.329.346.56.346.077 0 .156-.015.232-.045l.449-.18c.205-.082.384-.216.518-.39l.524-.673c.276-.355.338-.834.16-1.247l-.22-.515c-.09-.21-.29-.355-.517-.377-.234-.018-.45.085-.578.276l-.5.751c-.064.106-.155.245-.223.337-.27.053-.659.19-.801.535-.105.252-.046.542.134.72.043.056.168.276.262.463zm-.906.893c-.097.234-.043.503.136.681.616.617.839.667 1.047.667h1.21c.266 0 .502-.167.59-.418.087-.25.008-.53-.2-.695l-.436-.35c-.219-.175-.493-.271-.773-.271h-.996c-.253 0-.481.152-.578.386zm-9.713-7.458c.092 0 .185-.019.27-.056.17-.013.62.007 1.025.047.291.029.54-.131.643-.39l.242-.605c.07-.175.057-.373-.037-.538-.093-.165-.255-.28-.441-.31l-1.452-.242c-.316-.053-.63.149-.709.465-.193.772-.32 1.282.156 1.552.092.052.198.077.303.077zm-2.162-1.357c.043-.38-.087-.753-.357-1.023l-.47-.47c-.11-.11-.237-.198-.377-.26l-.73-.324c-.347-.155-.74-.144-1.076.03-.62.32-1.004.527-1.235.706-.38.016-1.326-.01-2.118-.05-.25-.011-.48.124-.59.345-.052.104-.142.295-.212.506H9.7c-.087 0-.176-.002-.246-.003-.54-.01-1.002-.017-1.186.447-.062.156-.072.368.033.558H8.3c-.172-.086-.364-.131-.556-.131H6.285c-.309 0-.606.114-.834.32l-.664.597c-.45.406-.545 1.074-.216 1.602.176.282.453.479.777.554.326.076.66.02.941-.157l.14-.088.463.265.25.25v1.154c0 .518.325.987.81 1.168l.429.16.531.62c.134.157.305.279.496.352l1.317.512-.533.888c-.17.282-.22.627-.14.944l.133.535c.064.259.206.486.412.658l.452.376.385 1.058-.23 2.193c-.022.195.05.387.192.52.118.11.27.17.429.17.034 0 .068-.002.103-.008.367-.061.927-.154 1.156-.501l.12-.059c.316-.15.548-.414.654-.74.22-.678.286-.924.305-1.048.063-.14.258-.461.318-.532l.613-.614c.113-.112.241-.24.522-1.467.02-.09.03-.18.03-.275v-.902c0-.328-.132-.65-.365-.882l-.127-.127c-.236-.236-.549-.365-.882-.365h-.522l-.457-.332c.111-.137.162-.317.132-.498-.041-.253-.234-.455-.484-.509l-.288-.061.239-.557c.06-.138.066-.293.022-.434l.664-.302c.136-.062.26-.148.367-.254l.31-.31c.351-.352.455-.875.284-1.324.052 0 .105-.003.158-.01l.526-.066c.312-.039.547-.305.547-.62v-.624c.044-.085.141-.25.314-.517l.204-.127c.325-.203.536-.537.58-.917zm-3.85 8.474c.214.156.467.238.733.238h.522l.126.125v.898c-.102.45-.198.79-.249.925l-.55.55c-.078.078-.614.786-.671 1.232-.014.063-.081.304-.26.844-.032.015-.067.032-.105.052l.116-1.108c.02-.187-.004-.38-.068-.556l-.385-1.06c-.076-.207-.205-.39-.374-.532l-.452-.375-.134-.535.588-.98.273-.364.89.646zm2.404-8.488c-.155.097-.284.224-.383.377-.482.742-.517.905-.517 1.085v.13l-.21-.474c-.09-.202-.233-.378-.415-.508-.245-.176-.584-.151-.8.06l-.353.345c-.039.037-.072.08-.1.126l-.369.615c-.02.034-.038.07-.051.108-.189.52-.337.93.023 1.243.195.17.485.201.713.08.092-.048.17-.082.23-.105.045.056.105.138.184.254l-.31.309-1.25.568c-.154.07-.274.2-.33.36-.057.16-.046.337.03.489l.117.232-.029.066-.192-.065c-.105-.034-.216-.04-.326-.018l-1.211.254c-.104.022-.198.07-.275.135l-.266-.31c-.137-.16-.313-.282-.508-.355l-.429-.159v-1.155c0-.333-.13-.647-.365-.882l-.25-.25c-.077-.077-.165-.144-.263-.2l-.465-.266c-.193-.11-.406-.165-.62-.165-.229 0-.458.063-.66.189l-.145.08.661-.598h1.458l.767.384c.559.277 1.25-.459 1.45-.69.133-.155.191-.382.153-.584.216-.028.392-.092.534-.231.132-.13.205-.303.204-.47.003-.024.013-.062.029-.11 2.184.099 2.285 0 2.479-.183.023-.022.045-.047.065-.073.11-.076.408-.251 1-.557l.73.323.471.468-.206.128z" transform="translate(1 4)"/>
                </g>
                <path fill="#FF2449" d="M16.625 29.313c-.346 0-.625.28-.625.625v1.25c0 .345.28.625.625.625.346 0 .625-.28.625-.625v-1.25c0-.345-.28-.625-.625-.625zM19.75 30.563c-.346 0-.625.28-.625.625v1.25c0 .344.28.624.625.624.346 0 .625-.28.625-.624v-1.25c0-.345-.28-.625-.625-.625zM22.875 31.656c-.346 0-.625.28-.625.625v1.25c0 .345.28.625.625.625.346 0 .625-.28.625-.625v-1.25c0-.345-.28-.625-.625-.625zM26 32.75c-.346 0-.625.28-.625.625v1.25c0 .345.28.625.625.625.346 0 .625-.28.625-.625v-1.25c0-.345-.28-.625-.625-.625z"/>
                <path fill="#E7F4F5" stroke="#E7F4F5" stroke-width=".25" d="M26.016 22.143l-.158-.252-.102-.72c-.025-.174-.123-.331-.271-.43-.146-.099-.328-.13-.5-.087l-.484.121c-.195.049-.354.188-.43.374l-.169.425-.485.323c-.108.072-.201.159-.279.257l-.425.53c-.028.035-.052.072-.071.112l-.242.483c-.013.027-.024.053-.034.082l-.242.726c-.021.064-.033.13-.033.197v.605c0 .035.003.07.009.104.02.125.04.296.044.415-.097.083-.235.196-.374.308h-.154l-.547-.468-.269-.712v-.978c0-.135-.044-.266-.124-.375l-.363-.484c-.118-.157-.303-.25-.5-.25l-.638.001-.396-.106-.108-.51.287-.288c.266-.267.396-.636.353-1.01l-.04-.27.35-.1c.213-.06.377-.23.433-.443.055-.214-.006-.442-.163-.599l-.71-.71c0-.012.003-.025.005-.038h.02c.052 0 .103-.006.153-.018l.967-.242c.223-.057.398-.231.455-.455l.08-.319.467-.473 1.042.26c.098.025.199.037.3.037h1.013c.61 0 .693-.628.743-1.004.013-.09.022-.18.037-.253.056-.067.114-.143.168-.218v.512c0 .345.28.625.625.625.27 0 .5-.17.587-.41.109-.076.323-.191.514-.274l1.019-.453 1.019-.189 1.225.754c.195.12.42.184.65.184h2.062l1.047.194-.107.349c-.304.101-.508.238-.643.381-.182-.15-.407-.247-.65-.274l-.193-.021c-.615-.069-1.187.331-1.338.93l-.087.351-.38.607c-.383.04-.873.184-.872.714-.008.113-.065.468-.092.639-.191.313-.31.483-.33.51l-.133.114c-.234.198-.436.37-.553.567-.064-.253-.25-.447-.496-.507-.39-.1-.735.055-1.489 1.15z"/>
            </g>
        </g>
    </g>
</svg>
