<svg xmlns="http://www.w3.org/2000/svg" width="38" height="38" viewBox="0 0 38 38">
    <g fill="none" fill-rule="evenodd">
        <circle cx="19.594" cy="19.594" r="18.406" fill="#E9F4F5"/>
        <path fill="#EF4050" fill-rule="nonzero" d="M31.713 20.819c-.286-.026-.5-.276-.479-.562.021-.287.276-.5.563-.474.286.02.5.27.473.557-.02.276-.25.479-.515.479h-.042zm-.477-2.557c-.026-.286.187-.541.474-.562.286-.02.535.188.562.474.026.291-.188.541-.474.562-.015.005-.032.005-.047.005-.266 0-.494-.208-.515-.479zM20.819 6.807c-.026.287-.276.5-.562.48-.287-.022-.5-.277-.474-.563.02-.286.27-.5.557-.474.276.021.479.25.479.516v.041zm-2.557.478c-.286.026-.541-.188-.562-.474-.02-.286.188-.536.474-.562.291-.026.541.187.562.473.005.016.005.032.005.047 0 .266-.208.495-.479.516zM6.807 17.702c.287.026.5.276.48.562-.022.286-.277.5-.563.474-.286-.021-.5-.271-.474-.557.021-.276.25-.48.516-.48h.041zm.478 2.556c.026.286-.188.542-.474.562-.286.021-.536-.187-.562-.473-.026-.292.187-.542.473-.563.016-.005.032-.005.047-.005.266 0 .495.208.516.48zm10.417 11.455c.026-.286.276-.5.562-.479.286.021.5.276.474.563-.021.286-.271.5-.557.473-.276-.02-.48-.25-.48-.515v-.042zm2.556-.477c.286-.026.542.187.562.474.021.286-.187.535-.473.562-.292.026-.542-.188-.563-.474-.005-.015-.005-.032-.005-.047 0-.266.208-.494.48-.515zm10.559-16.869c-.26.12-.57.012-.696-.246-.125-.258-.011-.57.249-.692.258-.125.568-.016.689.244.12.25.024.54-.206.673l-.036.021zm-1.694-1.973c-.166-.235-.11-.563.128-.724.237-.162.557-.107.724.128.168.24.109.562-.128.724-.011.012-.025.02-.038.028-.23.133-.533.068-.686-.156zm-2.269-3.126c-.166.235-.49.294-.727.133-.237-.162-.294-.49-.128-.725.162-.237.485-.296.72-.13.228.157.289.456.156.686l-.021.036zM24.403 8.4c-.261-.121-.375-.434-.25-.692.126-.258.432-.37.693-.249.265.124.374.434.249.692-.004.016-.011.03-.02.043-.133.23-.428.324-.672.206zm-10.034-.696c.12.26.011.57-.247.696-.258.125-.57.011-.692-.25-.125-.257-.016-.567.245-.689.25-.12.54-.023.673.207l.02.036zm-1.974 1.694c-.234.166-.562.109-.724-.128-.161-.237-.106-.558.128-.724.24-.169.563-.109.724.128.013.01.02.024.028.038.134.23.068.532-.156.686zM9.27 11.665c.235.166.294.49.133.727-.162.237-.49.293-.724.128-.238-.162-.297-.485-.131-.72.157-.228.456-.289.686-.156l.036.021zm-.87 2.451c-.12.261-.433.374-.691.249-.258-.125-.37-.431-.25-.692.125-.265.435-.374.693-.249.016.004.03.012.043.02.23.133.324.428.206.672zm-.714 9.995c.262-.12.571-.01.696.249.124.258.01.57-.252.69-.258.125-.568.014-.688-.246-.119-.25-.022-.54.208-.672l.036-.021zm1.687 1.979c.165.235.107.563-.13.723-.238.161-.558.105-.724-.13-.167-.24-.106-.563.13-.724.012-.012.025-.02.039-.028.23-.132.532-.065.685.159zm2.258 3.134c.167-.234.49-.292.727-.13.237.163.292.49.125.725-.162.236-.485.295-.72.128-.228-.157-.287-.457-.153-.686l.02-.037zm2.448.878c.26.123.372.435.246.693-.127.258-.432.368-.692.246-.265-.125-.373-.435-.247-.693.003-.016.012-.03.02-.043.133-.229.428-.321.673-.203zm10.033.733c-.12-.261-.01-.57.249-.695.258-.125.57-.01.69.251.125.259.014.568-.246.688-.25.12-.54.022-.672-.208-.009-.013-.017-.027-.021-.036zm1.979-1.687c.235-.165.563-.107.723.13.161.239.105.559-.13.724-.24.168-.563.107-.724-.13-.012-.011-.02-.025-.028-.038-.132-.231-.065-.533.159-.686zm3.134-2.257c-.234-.167-.292-.49-.13-.727.163-.237.49-.292.725-.126.236.163.295.486.128.72-.157.228-.457.288-.686.154l-.037-.021zm.878-2.448c.123-.26.435-.373.693-.246.258.126.368.432.246.692-.125.265-.435.373-.693.246-.016-.003-.03-.011-.043-.019-.229-.133-.321-.428-.203-.673z"/>
        <path stroke="#02647A" stroke-linecap="round" stroke-width=".8" d="M19.238 0.499L22.692 6.713 28.63 3.101 28.63 9.89 35.375 9.89 31.86 15.932 37.978 19.238 31.911 22.666 35.375 28.63 28.63 28.63 28.63 35.375 22.588 31.834 19.238 37.978 15.906 31.834 9.89 35.375 9.89 28.63 3.101 28.63 6.687 22.666 0.499 19.238 6.738 15.932 3.101 9.89 9.89 9.89 9.89 3.101 15.958 6.661z"/>
        <path fill="#FFF" stroke="#02647A" stroke-width=".8" d="M19.26 8.85c-5.75 0-10.41 4.66-10.41 10.41s4.66 10.411 10.41 10.411 10.411-4.66 10.411-10.41-4.66-10.412-10.41-10.412h0z"/>
    </g>
</svg>
