<svg xmlns="http://www.w3.org/2000/svg" width="42" height="42" viewBox="0 0 42 42">
    <g fill="none" fill-rule="evenodd">
        <g>
            <g transform="translate(-785 -817) translate(785 817)">
                <circle cx="21" cy="21" r="21" fill="#E5EFF1"/>
                <g transform="matrix(-1 0 0 1 42 0)">
                    <path fill="#00667C" stroke="#00667C" stroke-width=".4" d="M25.012 20.982c-1.71.1-11.033.09-12.887.087-.049 0-.09-.025-.111-.066C11 19.082 5.86 9.368 4.204 6.882 3.275 5.488 1.784 4.83.808 5.388c-.532.304-1.584 1.396.137 4.962 1.158 2.399 1.994 4.396 2.63 6.283C5.31 21.766 7.378 29.56 7.378 37.552v.407h3.84l-.012-.418c0-.03-.056-3.021 1.997-5.128 1.35-1.387 3.314-2.09 5.835-2.09h4.22c1.583 0 2.839.495 3.73 1.47 1.897 2.077 1.594 5.685 1.59 5.721l-.04.445h3.873l-.005-.413c-.024-2.156.117-4.196.241-5.997.279-4.037.499-7.226-1.297-9.04-1.216-1.225-3.225-1.712-6.337-1.527h0z"/>
                    <path fill="#00687F" stroke="#00687F" stroke-width=".4" d="M8.851 8.113c-.49.84-.53 1.944-.003 2.859l4.539 7.88c.24.42.689.678 1.172.678h12.49c.82 0 1.488-.666 1.488-1.486s-.668-1.488-1.487-1.488h-8.46c-.191 0-.37-.103-.465-.27L13.45 8.173c-.373-.647-.977-1.1-1.703-1.275-.107-.025-.214-.031-.322-.044.436-.555.706-1.245.706-2.003 0-1.8-1.464-3.265-3.265-3.265-1.8 0-3.265 1.465-3.265 3.265 0 1.795 1.456 3.255 3.25 3.263h0z"/>
                    <path fill="#00687F" d="M41.704 35.78l-7.491-9.268v4.773l5.445 6.216c.26.3.632.456 1.009.456.222 0 .445-.054.647-.167.346-.193.587-.527.662-.913.075-.388-.024-.787-.272-1.096z"/>
                    <circle cx="28.636" cy="8.273" r="7" fill="#FFF"/>
                    <path fill="#1B7886" stroke="#007A88" stroke-width=".3" d="M28.693 1.628c3.496 0 6.34 2.845 6.34 6.34 0 1.899-.839 3.68-2.303 4.89l.539.652c1.66-1.372 2.61-3.391 2.61-5.541 0-3.962-3.224-7.186-7.186-7.186-3.963 0-7.186 3.224-7.186 7.186h.845c0-3.496 2.845-6.34 6.341-6.34"/>
                    <path fill="#E7412A" d="M29.753 7.744l1.958-1.958c.159-.159.159-.417 0-.576-.159-.159-.417-.159-.576 0l-1.957 1.957c-.088-.027-.177-.054-.274-.054-.498 0-.904.405-.904.903 0 .5.406.904.904.904.5 0 .904-.405.904-.904 0-.096-.027-.185-.055-.272"/>
                    <path fill="#FFF" d="M31.834 31.494c-.117 1.7-.25 3.614-.246 5.65h-2.176c.028-1.102-.083-3.99-1.82-5.898-1.053-1.153-2.511-1.737-4.335-1.737h-4.22c-2.75 0-4.908.786-6.418 2.334-1.834 1.884-2.162 4.331-2.218 5.301H8.189c-.068-7.957-2.118-15.669-3.842-20.772-.647-1.92-1.495-3.946-2.668-6.377-1.164-2.41-.98-3.607-.467-3.9.508-.293 1.585.146 2.314 1.239 1.67 2.505 7.148 12.876 7.768 14.05.163.308.482.5.83.5 1.856.003 11.205.013 12.936-.09 2.861-.17 4.672.24 5.71 1.289 1.537 1.552 1.328 4.578 1.064 8.411z"/>
                    <path fill="#BDE4EA" d="M12.745 8.579l4.673 8.115c.24.417.69.677 1.173.677h8.459c.37 0 .673.302.673.673 0 .37-.303.672-.673.672H14.559c-.192 0-.37-.104-.466-.27l-4.539-7.881c-.526-.913-.285-2.091.539-2.624.31-.202.662-.305 1.02-.305.148 0 .296.017.444.053.506.122.929.438 1.188.89zM8.867 2.4c1.351 0 2.45 1.098 2.45 2.45 0 1.351-1.099 2.45-2.45 2.45-1.35 0-2.45-1.099-2.45-2.45 0-1.352 1.1-2.45 2.45-2.45z"/>
                </g>
                <path fill="#B3E5EB" d="M6.915 36.924c-.221.124-.5.075-.667-.116L.84 30.634v-2.23l6.232 7.711c.1.125.14.286.11.441-.031.157-.128.29-.267.368z" transform="matrix(-1 0 0 1 8.031 0)"/>
            </g>
        </g>
    </g>
</svg>
