<svg xmlns="http://www.w3.org/2000/svg" width="38" height="40" viewBox="0 0 38 40">
    <g fill="none" fill-rule="evenodd">
        <circle cx="19" cy="19" r="19" fill="#E9F4F5" fill-rule="nonzero"/>
        <path fill="#EF4050" fill-rule="nonzero" d="M28.828 5.774c-.362 0-.656.293-.656.655 0 .362.294.655.656.655.361 0 .655-.293.655-.655 0-.362-.294-.655-.655-.655zM26.207 5.774c-.362 0-.655.293-.655.655 0 .362.293.655.655.655.362 0 .655-.293.655-.655 0-.362-.293-.655-.655-.655zM34.069 5.774c-.362 0-.655.293-.655.655 0 .362.293.655.655.655.362 0 .655-.293.655-.655 0-.362-.293-.655-.655-.655zM31.448 5.774c-.362 0-.655.293-.655.655 0 .362.293.655.655.655.362 0 .655-.293.655-.655 0-.362-.293-.655-.655-.655zM32.103 27.394c-.361 0-.655.294-.655.656 0 .361.294.655.655.655.362 0 .656-.294.656-.655 0-.362-.294-.656-.656-.656zM29.483 27.394c-.362 0-.655.294-.655.656 0 .361.293.655.655.655.362 0 .655-.294.655-.655 0-.362-.293-.656-.655-.656zM37.345 27.394c-.362 0-.655.294-.655.656 0 .361.293.655.655.655.362 0 .655-.294.655-.655 0-.362-.293-.656-.655-.656zM34.724 27.394c-.362 0-.655.294-.655.656 0 .361.293.655.655.655.362 0 .655-.294.655-.655 0-.362-.293-.656-.655-.656zM7.862 6.43c-.362 0-.655.293-.655.655 0 .362.293.655.655.655.362 0 .655-.293.655-.655 0-.362-.293-.655-.655-.655zM.655 27.394c-.362 0-.655.294-.655.656 0 .361.293.655.655.655.362 0 .655-.294.655-.655 0-.362-.293-.656-.655-.656zM8.517 27.394c-.362 0-.655.294-.655.656 0 .361.293.655.655.655.362 0 .655-.294.655-.655 0-.362-.293-.656-.655-.656zM5.897 27.394c-.362 0-.656.294-.656.656 0 .361.294.655.656.655.361 0 .655-.294.655-.655 0-.362-.294-.656-.655-.656z"/>
        <path fill="#FFF" stroke="#02647A" stroke-linecap="round" stroke-linejoin="round" stroke-width=".8" d="M11.031 17.433l-2.628-8.23c.197.475.664.81 1.211.81.724 0 1.31-.586 1.31-1.31 0-.186-.04-.362-.11-.522L9.58 4.478c-.134-.581-.652-1.016-1.275-1.016-.724 0-1.31.587-1.31 1.31L6.428 3.01l-.012.004C6.077 1.957 5.1 1.188 3.931 1.188c-1.447 0-2.62 1.173-2.62 2.62 0 .278.054.54.134.792l-.01.003 7.268 22.776c.21.712.595 1.385 1.157 1.947.896.897 2.07 1.344 3.243 1.344h13.104c1.447 0 2.62-1.173 2.62-2.62 0-1.448-1.173-2.621-2.62-2.621H13.583l-1.454-4.557"/>
        <path fill="#A3C8D0" stroke="#02647A" stroke-linecap="round" stroke-linejoin="round" stroke-width=".8" d="M20.638 17.567H10.155c-.905 0-1.638.733-1.638 1.638 0 .905.733 1.638 1.638 1.638H22.276v-1.638c0-.905-.733-1.638-1.638-1.638zm6.678 18.804l-2.42-5.7H13.76l-2.455 5.754.003.005c-.107.242-.17.51-.17.792 0 1.086.88 1.965 1.966 1.965h12.449c1.085 0 1.965-.88 1.965-1.965 0-.307-.076-.592-.2-.851z"/>
    </g>
</svg>
