<svg xmlns="http://www.w3.org/2000/svg" width="38" height="38" viewBox="0 0 38 38">
    <g fill="none" fill-rule="evenodd">
        <circle cx="19" cy="19" r="19" fill="#E9F4F5"/>
        <path fill="#FFF" d="M13.656 31.435L7.125 31.435 5.938 30.875 5.201 29.688 5.201 19 6.531 7.125 6.531 4.75 8.906 2.375 11.281 1.748 16.031 1.748 19 0.609 22.563 1.748 27.313 1.748 30.219 3.084 32.063 5.49 32.063 18.607 32.759 29.267 32.063 30.875 30.219 31.435z"/>
        <g>
            <path fill="#02647A" fill-rule="nonzero" d="M14.25 16.625c.328 0 .594-.265.594-.594v-1.187c0-.329-.266-.594-.594-.594-.328 0-.594.265-.594.594v1.187c0 .329.266.594.594.594z" transform="translate(4.75)"/>
            <path fill="#EF4050" d="M8.313 27.313c-.328 0-.594.265-.594.593v1.188c0 .328.266.593.593.593.328 0 .594-.265.594-.593v-1.188c0-.328-.266-.593-.594-.593zM5.344 27.313c-.328 0-.594.265-.594.593v1.188c0 .328.266.593.594.593.327 0 .593-.265.593-.593v-1.188c0-.328-.266-.593-.593-.593zM11.281 27.313c-.328 0-.594.265-.594.593v1.188c0 .328.267.593.594.593.328 0 .594-.265.594-.593v-1.188c0-.328-.266-.593-.594-.593zM14.25 27.313c-.328 0-.594.265-.594.593v1.188c0 .328.266.593.594.593.328 0 .594-.265.594-.593v-1.188c0-.328-.266-.593-.594-.593zM17.219 27.313c-.328 0-.594.265-.594.593v1.188c0 .328.266.593.594.593.328 0 .593-.265.593-.593v-1.188c0-.328-.265-.593-.593-.593zM20.188 27.313c-.328 0-.594.265-.594.593v1.188c0 .328.266.593.593.593.328 0 .594-.265.594-.593v-1.188c0-.328-.266-.593-.593-.593zM23.156 27.313c-.328 0-.593.265-.593.593v1.188c0 .328.265.593.593.593.328 0 .594-.265.594-.593v-1.188c0-.328-.266-.593-.594-.593zM26.125 27.313c-.328 0-.594.265-.594.593v1.188c0 .328.266.593.594.593.328 0 .594-.265.594-.593v-1.188c0-.328-.266-.593-.594-.593z" transform="translate(4.75)"/>
            <path fill="#A3C8D0" d="M23.156 21.375c-1.31 0-2.375 1.065-2.375 2.375s1.065 2.375 2.375 2.375 2.375-1.065 2.375-2.375-1.065-2.375-2.375-2.375z" transform="translate(4.75)"/>
            <path fill="#FFF" d="M23.156 24.938c-.655 0-1.187-.533-1.187-1.188 0-.655.532-1.188 1.187-1.188s1.188.533 1.188 1.188c0 .655-.533 1.188-1.188 1.188z" transform="translate(4.75)"/>
            <path fill="#A3C8D0" d="M5.344 21.375c-1.31 0-2.375 1.065-2.375 2.375s1.065 2.375 2.375 2.375 2.375-1.065 2.375-2.375-1.065-2.375-2.375-2.375z" transform="translate(4.75)"/>
            <path fill="#FFF" d="M5.344 24.938c-.655 0-1.188-.533-1.188-1.188 0-.655.533-1.188 1.188-1.188.655 0 1.187.533 1.187 1.188 0 .655-.532 1.188-1.187 1.188z" transform="translate(4.75)"/>
            <path fill="#E9F4F5" d="M3.568 16.625l.588-8.978.594-1.116h5.345c0 .744 1.186 1.116 3.561 1.116 3.563 0 4.001.13 4.805-.93.23-.124 1.816-.186 4.757-.186l1.361.869.525 9.225-.82 1.982H4.216l-.647-.794v-1.188z" transform="translate(4.75)"/>
            <path fill="#02647A" fill-rule="nonzero" stroke="#FFF" stroke-width=".15" d="M28.402 20.836l-.834-14.61c-.162-2.825-2.506-5.038-5.336-5.038h-4.628c-.136 0-.256-.038-.34-.108C16.416.384 15.346 0 14.25 0c-1.097 0-2.167.384-3.013 1.08-.085.07-.205.107-.341.107H6.268c-2.83 0-5.174 2.214-5.336 5.04l-.835 14.61C.033 21.971 0 23.121 0 24.257v4.837c0 1.637 1.332 2.968 2.969 2.968h3.79L5.57 34.438H2.969c-.328 0-.594.265-.594.593 0 .329.266.594.594.594h2.008l-.758 1.516c-.146.293-.028.65.266.797.084.042.175.062.264.062.218 0 .428-.12.532-.328l1.023-2.047h15.892l1.023 2.047c.104.208.314.328.532.328.089 0 .18-.02.264-.062.294-.147.412-.504.266-.797l-.758-1.516h2.008c.328 0 .594-.265.594-.594 0-.328-.266-.593-.594-.593H22.93l-1.187-2.376h3.79c1.636 0 2.968-1.331 2.968-2.968v-4.837c0-1.138-.033-2.289-.098-3.42zM6.898 34.438l1.188-2.376h12.328l1.188 2.376H6.898zm20.415-5.344c0 .982-.8 1.781-1.782 1.781H2.97c-.982 0-1.781-.8-1.781-1.781v-4.837c0-1.113.032-2.24.095-3.352l.835-14.61c.126-2.199 1.949-3.92 4.15-3.92h4.628c.41 0 .798-.134 1.095-.378.644-.53 1.425-.81 2.259-.81.822 0 1.624.288 2.26.81.295.244.684.378 1.094.378h4.628c2.201 0 4.024 1.721 4.15 3.919l.834 14.61h0c.064 1.11.096 2.238.096 3.353v4.837z" transform="translate(4.75)"/>
            <path fill="#02647A" fill-rule="nonzero" d="M4.81 19h18.88c.493 0 .95-.196 1.29-.552.337-.356.516-.826.486-1.318l-.475-9.5c-.048-.95-.825-1.692-1.775-1.692h-4.323c-.243-.69-.902-1.188-1.674-1.188H11.28c-.772 0-1.43.499-1.674 1.188H5.284c-.95 0-1.727.742-1.775 1.692l-.475 9.5c-.03.492.149.962.487 1.318.338.356.796.552 1.288.552zM11.28 5.937h5.938c.326 0 .593.268.593.594 0 .327-.267.594-.593.594H11.28c-.326 0-.594-.267-.594-.594 0-.326.268-.593.594-.593zM4.691 7.69c.017-.315.279-.564.593-.564h4.323c.243.689.902 1.188 1.674 1.188h2.375v4.156c0 .328.266.594.594.594.328 0 .594-.266.594-.594V8.313h2.375c.772 0 1.43-.5 1.674-1.188h4.323c.314 0 .576.25.593.564l.475 9.5c.006.166-.053.32-.166.44-.113.118-.267.183-.427.183H4.809c-.16 0-.314-.065-.427-.184-.113-.118-.172-.273-.166-.439l.475-9.5z" transform="translate(4.75)"/>
            <path fill="#EF4050" d="M2.375 27.313c-.328 0-.594.265-.594.593v1.188c0 .328.266.593.594.593.328 0 .594-.265.594-.593v-1.188c0-.328-.266-.593-.594-.593z" transform="translate(4.75)"/>
        </g>
    </g>
</svg>
